# xmcd
#
# Track frame offsets: 
#        150
#        11052
#        21810
#        33614
#        45978
#        56465
#        69122
#        81627
#        92020
#        104170
#        115867
#        125477
#        138957
#        151941
#        160866
#        173343
#        182810
#        192712
#        203334
#        215955
#
# Disc length: 3045 seconds
#
# Revision: 2
# Processed by: cddbd v1.5.2PL0 Copyright (c) Steve Scherf et al.
# Submitted via: ExactAudioCopy v1.1
#
DISCID=130be314
DTITLE=Various Artist - Rhythm and Blues Goes Rock 'n' Roll - CD04
DYEAR=2002
DGENRE=Blues
TTITLE0=Joe Turner - Mad Blues (mono)
TTITLE1=King Porter - Chitlin' Ball (mono)
TTITLE2=King Perry - Leona's Boogie (mono)
TTITLE3=Johnny Otis - Goomp Blues (mono)
TTITLE4=Joe Swift - What's Your Name (mono)
TTITLE5=Clarence Brown - Boogie Rambler (mono)
TTITLE6=Wynonie Harris - Lollipop Mama (mono)
TTITLE7=Billy Wright - After Dark Blues (mono)
TTITLE8=Pearl Reaves - You Can't Stay Here (mono)
TTITLE9=Big Mama Thornton - You Did Me Wrong (mono)
TTITLE10=Madonna Martin - Rattlesnakin' Daddy (mono)
TTITLE11=Honey Brown - Rockin' And Jumpin' (mono)
TTITLE12=Joe Turner - Sally Zu Zazz (mono)
TTITLE13=King Perry - Fat Mama (mono)
TTITLE14=Madonna Martin - Madanna's Boogie (mono)
TTITLE15=Sheri Washington - Ain't Talkin' To You Baby (mono)
TTITLE16=Dell Graham - Work With It (mono)
TTITLE17=Ann Carter - You Oughta Quit It (mono)
TTITLE18=King Perry - Wait Now (mono)
TTITLE19=Ivory Joe Hunter - Siesta With Sonny (mono)
EXTD=
EXTT0=
EXTT1=
EXTT2=
EXTT3=
EXTT4=
EXTT5=
EXTT6=
EXTT7=
EXTT8=
EXTT9=
EXTT10=
EXTT11=
EXTT12=
EXTT13=
EXTT14=
EXTT15=
EXTT16=
EXTT17=
EXTT18=
EXTT19=
PLAYORDER=
